Coordinates
nRows=7
nColumns=38

# SIMM Motion File Header:
name Coordinates
datacolumns 38
datarows 7
otherdata 1
range 2.33080000000000000000 2.33679999999999980000

Units are S.I. units (second, meters, Newtons, ...)
Angles are in degrees.

endheader
time	pelvis_tilt	pelvis_list	pelvis_rotation	pelvis_tx	pelvis_ty	pelvis_tz	hip_flexion_r	hip_adduction_r	hip_rotation_r	knee_angle_r	ankle_angle_r	subtalar_angle_r	mtp_angle_r	hip_flexion_l	hip_adduction_l	hip_rotation_l	knee_angle_l	ankle_angle_l	subtalar_angle_l	mtp_angle_l	lumbar_extension	lumbar_bending	lumbar_rotation	arm_flex_r	arm_add_r	arm_rot_r	elbow_flex_r	pro_sup_r	wrist_flex_r	wrist_dev_r	arm_flex_l	arm_add_l	arm_rot_l	elbow_flex_l	pro_sup_l	wrist_flex_l	wrist_dev_l
      2.33080000000000000000	     -3.49309969552702130000	      2.25750361393400390000	      4.21824561068761830000	      1.12412246769788430000	      1.02299198906052680000	     -0.34191547791810767000	     -6.50267793586887690000	      6.85146949298296980000	      2.70787633791640350000	    -70.93043601397965900000	    -17.92872246457553600000	     -0.00000000000007550901	     -0.00000000000010057991	     32.25950987226900000000	      5.24406373829067810000	      1.35547263332322700000	    -17.24858254741401700000	    -19.75037865751208300000	      0.00000000000002597080	      0.00000000000001263016	     -6.26033990184584340000	     -3.87992811184411800000	     11.02822863896373900000	    -28.40473799594881000000	     -9.91071780704837830000	     -9.34322653112615780000	     97.80331816214797400000	     82.07710199426024600000	      0.00000000000000714428	     -0.00000000000001488358	    -57.16239388240133200000	    -15.67392298402347400000	    -14.42532099955116300000	    115.85081803708654000000	     91.37057966409638300000	      0.00000000000001286807	     -0.00000000000000049516
      2.33179999999999990000	     -3.43342742007309320000	      2.29439969136636930000	      4.22387320990888690000	      1.12405036314458350000	      1.02266144146326910000	     -0.34193421655350320000	     -6.31765999351089840000	      6.76106789170904140000	      2.53953455711788270000	    -71.55986083466545700000	    -17.85436862002066900000	     -0.00000000000007593399	     -0.00000000000010093392	     32.06244448170286200000	      5.28758892462806250000	      1.34009919091930340000	    -17.12763650202077400000	    -19.85002230884350300000	      0.00000000000002609791	      0.00000000000001274079	     -6.35536041212393870000	     -3.93039378266190420000	     10.95189812568856500000	    -28.47005342498642800000	     -9.91273393436914500000	     -9.30436094389949810000	     97.53625763811709200000	     81.92124855035898200000	      0.00000000000000717799	     -0.00000000000001498315	    -57.01617604104271900000	    -15.67877017382201800000	    -14.38418097247710000000	    115.86485931207798000000	     91.38789364545668500000	      0.00000000000001295464	     -0.00000000000000053091
      2.33279999999999980000	     -3.37719750471064730000	      2.33215763565743160000	      4.22839136737487480000	      1.12397689772871120000	      1.02231566071983340000	     -0.34195197065110289000	     -6.12731679893992800000	      6.66811378328781230000	      2.37390722744553840000	    -72.18996135772229600000	    -17.77827082784892100000	     -0.00000000000007635853	     -0.00000000000010128867	     31.87283783933321900000	      5.33119145539189800000	      1.32226117516211870000	    -17.02260843394304900000	    -19.94978868864144100000	      0.00000000000002622446	      0.00000000000001285242	     -6.44616844835795980000	     -3.98212027941298400000	     10.87526555278928200000	    -28.53523566968011200000	     -9.91468978719829330000	     -9.26458486111066650000	     97.26621344881084500000	     81.76254529764735000000	      0.00000000000000721112	     -0.00000000000001508235	    -56.86815333012545900000	    -15.68479216093437100000	    -14.34219356777662700000	    115.87738135534651000000	     91.40364533152418900000	      0.00000000000001304128	     -0.00000000000000056709
      2.33380000000000010000	     -3.32424799562626830000	      2.37083705879464810000	      4.23181992487395940000	      1.12390223774129310000	      1.02195486516190860000	     -0.34196879229857841000	     -5.93187862334274030000	      6.57261899806262400000	      2.21105958763491640000	    -72.82064713471356800000	    -17.70008498658333500000	     -0.00000000000007678098	     -0.00000000000010164495	     31.69042617266619300000	      5.37499925412680300000	      1.30231435563309650000	    -16.93333754402880200000	    -20.04925860671039600000	      0.00000000000002635061	      0.00000000000001296510	     -6.53292667408741410000	     -4.03516649123697310000	     10.79832626804805600000	    -28.60028073262209200000	     -9.91659669311946600000	     -9.22393983606729330000	     96.99322165071717400000	     81.60127482733105400000	      0.00000000000000724458	     -0.00000000000001518253	    -56.71834996761872100000	    -15.69199722004800900000	    -14.29937456867383500000	    115.88842531940631000000	     91.41772981953512600000	      0.00000000000001312841	     -0.00000000000000060323
      2.33480000000000000000	     -3.27438170922210060000	      2.41049703645089460000	      4.23418259890232470000	      1.12382655558593990000	      1.02157932350880620000	     -0.34198473966955212000	     -5.73161526200729820000	      6.47459967009367520000	      2.05104724685562670000	    -73.45181703280519500000	    -17.61948090876386900000	     -0.00000000000007720113	     -0.00000000000010200177	     31.51489824209186400000	      5.41914191513787810000	      1.28063279178093410000	    -16.85964473527014500000	    -20.14796784490237900000	      0.00000000000002647588	      0.00000000000001308080	     -6.61583902166706310000	     -4.08958714779553120000	     10.72107084329963700000	    -28.66518174558039800000	     -9.91846863059033980000	     -9.18246582043692250000	     96.71732368517999100000	     81.43771967917005800000	      0.00000000000000727765	     -0.00000000000001528511	    -56.56678674625421600000	    -15.70039114722884800000	    -14.25573988913849300000	    115.89803442799547000000	     91.43004352565147000000	      0.00000000000001321557	     -0.00000000000000063930
      2.33579999999999990000	     -3.22746079846795110000	      2.45118305623582480000	      4.23550595651821830000	      1.12375000773289190000	      1.02118921598375170000	     -0.34199987252464803000	     -5.52672354966348590000	      6.37408380403732710000	      1.89392067949449540000	    -74.08338427860881800000	    -17.53613873164200500000	     -0.00000000000007762074	     -0.00000000000010235720	     31.34600925530701000000	      5.46374208119191800000	      1.25760396465345960000	    -16.80135660867125900000	    -20.24539139664318200000	      0.00000000000002660159	      0.00000000000001319877	     -6.69504381189206210000	     -4.14542676153149610000	     10.64349130527958600000	    -28.72994162733596800000	     -9.92031828502049610000	     -9.14020092376455470000	     96.43856084999485700000	     81.27216545708725400000	      0.00000000000000731117	     -0.00000000000001538913	    -56.41349297821007300000	    -15.70997703464873900000	    -14.21130678979090300000	    115.90624842249773000000	     91.44048678648576400000	      0.00000000000001330262	     -0.00000000000000067587
      2.33679999999999980000	     -3.18333790329537790000	      2.49293570691043390000	      4.23582079319091420000	      1.12367274811709360000	      1.02078473632927720000	     -0.34201425501881588000	     -5.31740892213025780000	      6.27110648932554500000	      1.73972170794931970000	    -74.71525796926947300000	    -17.44975473921002500000	     -0.00000000000007804105	     -0.00000000000010271296	     31.18349981618304800000	      5.50892012376123570000	      1.23362265876920430000	    -16.75828902296626300000	    -20.34099987871972100000	      0.00000000000002672730	      0.00000000000001331531	     -6.77069195531485150000	     -4.20272323814738070000	     10.56557584732050300000	    -28.79456298679410500000	     -9.92215983970559100000	     -9.09718142962264410000	     96.15697776991170500000	     81.10489717140100700000	      0.00000000000000734452	     -0.00000000000001549358	    -56.25849700392041800000	    -15.72075538652068800000	    -14.16609288075111000000	    115.91310730915619000000	     91.44896340554409200000	      0.00000000000001338971	     -0.00000000000000071193
